<?xml version="1.0" encoding="utf-8"?>
<!-- Generator: Adobe Illustrator 23.0.1, SVG Export Plug-In . SVG Version: 6.00 Build 0)  -->
<svg version="1.1" id="Шар_1" xmlns="http://www.w3.org/2000/svg" xmlns:xlink="http://www.w3.org/1999/xlink" x="0px" y="0px"
	 viewBox="0 0 1024 512" style="enable-background:new 0 0 1024 512;" xml:space="preserve">
<style type="text/css">
	.st0{fill:#4D4D4D;}
	.st1{fill:#991D1D;}
	.st2{fill:#447C2D;}
</style>
<g>
	<path class="st0" d="M875.7,330.92c-4.56,0.69-8.67,1.88-12.72,3.29c-6.59,2.3-12.94,5.23-19.48,7.62
		c-12.1,4.41-24.08,9.18-36.91,11.31c-10.95,1.82-21.82,1.48-32.76,0.14c-11.89-1.46-23.64-3.81-35.47-5.62
		c-6.45-0.99-12.98-1.49-19.38-2.72c-11.45-2.2-22.99-1.96-34.49-1.54c-12.77,0.47-25.39,2.31-37.67,6.14
		c-3.84,1.2-7.82,1.91-11.73,2.88c-0.69,0.17-1.39,0.42-2.01,0.77c-4.8,2.68-9.81,2.54-14.9,1.12c-2.52-0.7-2.5-0.76-2.56,1.97
		c-0.21,10.89-7.6,21.73-17.64,25.33c-9.4,3.37-19.28,0.27-23.14-8.9c-0.65-1.53-1.1-3.12-1.27-5.11c-2.45,2.07-4.64,4.08-7,5.89
		c-6.99,5.34-14.46,9.52-23.65,9.35c-7.34-0.13-13.04-5.29-13.86-12.6c-0.06-0.55,0.16-1.34-0.37-1.6
		c-0.77-0.37-1.09,0.53-1.49,0.95c-3.79,3.99-7.78,7.75-12.48,10.65c-1.34,0.83-2.8,1.5-4.28,2.04c-4.89,1.79-9.04-0.45-10.28-5.5
		c-1.03-4.21-0.75-8.46-0.34-12.71c0.07-0.67,0.47-1.35-0.09-2.24c-1.94,3.09-3.77,6.09-5.96,8.83c-3.36,4.18-6.88,8.2-11.73,10.74
		c-6.57,3.45-12.64,0.35-13.77-7.01c-0.27-1.76-0.42-3.55-0.62-5.35c-0.85-0.09-1.03,0.68-1.42,1.12c-4.11,4.6-8.46,8.9-14.22,11.45
		c-2.8,1.24-5.71,1.74-8.64,0.85c-4.51-1.38-6.97-5.59-6.49-10.73c0.36-3.89,1.45-7.65,2.06-11.5c0.47-2.99,1.25-5.94,1.2-8.99
		c-0.01-0.58,0.03-1.17-0.06-1.73c-0.49-2.77-0.5-2.77,2.45-3.32c4.64-0.87,6.22,0.49,5.77,5.22c-0.56,5.9-2.2,11.61-3.2,17.44
		c-0.21,1.2-0.38,2.43-0.36,3.65c0.03,3.06,2.08,4.57,5.06,3.81c3.25-0.83,5.81-2.84,8.27-4.97c4.27-3.71,7.97-7.96,11.26-12.55
		c1.46-2.04,2.07-4.59,3.47-6.71c3.55-5.37,7.84-9.78,14.34-11.47c5.04-1.31,9.71-0.18,14.23,2.04c0.7,0.35,1.39,0.72,2.33,1.21
		c0.82-4.22,1.61-8.28,2.39-12.35c0.41-2.12,0.77-4.26,1.22-6.37c0.25-1.16,0.31-1.78-1.27-1.39c-1.31,0.32-2.72,0.29-4.09,0.28
		c-3.77-0.03-6.57-2.68-6.88-6.41c-0.07-0.86,0.12-1.22,1.09-0.92c6.47,2.01,12.86,1.03,19.18-0.76c2.1-0.6,1.6,0.74,1.41,1.73
		c-1.08,5.44-2.32,10.86-3.32,16.32c-1.92,10.49-4.8,20.81-5.79,31.47c-0.18,1.96-0.18,3.9,0.2,5.83c0.5,2.53,2.19,3.5,4.62,2.64
		c3.07-1.08,5.43-3.24,7.86-5.27c1.27-1.06,2.44-2.25,3.63-3.41c3.16-3.06,5.8-6.31,7.53-10.58c3.86-9.55,13.49-15.19,23.45-14.54
		c4.34,0.28,7.81,2.68,8.96,6.34c1,3.19,0.28,6.18-1.62,8.82c-3.82,5.3-9.38,7.92-15.44,9.7c-2.51,0.74-5.11,0.95-7.7,1.13
		c-1.21,0.08-1.58,0.48-1.56,1.71c0.11,5.16,3.4,8.59,8.56,8.66s9.72-1.86,13.99-4.55c4.99-3.13,9.33-7.02,13.24-11.41
		c0.49-0.55,0.82-1.17,1.04-1.87c3-9.56,10.56-15.32,20.51-15.55c1.15-0.03,1.39-0.15,1.16-1.42c-0.66-3.67,0.89-4.98,4.42-4.09
		c4.13,1.04,7.7,3.12,10.25,6.45c2.46,3.21,5.9,4.05,9.43,5.11c4.84,1.45,9.17-0.39,13.64-1.57c7.57-2,15.22-3.74,22.71-6
		c5.39-1.63,10.91-2.56,16.39-3.59c2.4-0.45,5.01-0.5,7.45-0.87c9.13-1.38,18.28-0.58,27.4-0.5c5.37,0.05,10.81,0.73,16.17,1.8
		c3.1,0.62,6.35,0.69,9.51,1.19c3.51,0.56,7.04,0.93,10.51,1.82c2.73,0.7,5.58,0.95,8.38,1.42c4.34,0.73,8.67,1.51,12.99,2.28
		c3.68,0.65,7.43,1.21,11.2,1.58c6.26,0.6,12.51,0.33,18.76,0.49c3.74,0.1,7.39-0.69,11.08-1.02c3.18-0.28,6.3-0.86,9.37-1.56
		c5.26-1.2,10.53-2.33,15.72-3.85c7.94-2.33,15.84-4.76,23.86-6.86c6.14-1.6,12.38-2.53,18.57-3.78
		C874.39,330,875.01,329.95,875.7,330.92z M607.44,356.67c0-0.58,0-0.94,0-1.31c0-3.43-0.64-5.94-4.75-7.13
		c-3.64-1.05-6.85-1.3-10.21,0.23c-7.62,3.47-12.49,13.99-10.24,22.03c2.29,8.21,11,10.86,17.34,5.18
		C605.26,370.56,607.19,363.82,607.44,356.67z M475.88,366.78c0.04,1.95-0.05,3.67,0.65,5.33c1.16,2.76,3.49,3.65,6.12,2.18
		c2.04-1.14,3.68-2.78,5.22-4.5c5.07-5.65,9.3-11.93,13.6-18.16c0.62-0.9,0.64-1.41-0.42-1.99c-2.22-1.21-4.46-2.37-6.86-3.15
		c-5.8-1.87-9.82-0.51-13.38,4.45C477.39,355.74,476.03,361.19,475.88,366.78z M539.11,361.85c5.91-0.78,10.57-2.65,14.36-6.38
		c1.71-1.68,2.62-3.78,2.91-6.14c0.44-3.68-1.92-5.8-5.55-5c-2.07,0.45-3.93,1.35-5.53,2.79c-3.83,3.46-5.97,7.84-7.16,12.79
		C537.75,361.54,538.2,362.07,539.11,361.85z"/>
	<path class="st0" d="M280.87,251.26c0,6.98-0.08,13.96,0.05,20.94c0.04,2.15-0.64,2.81-2.7,2.58c-1.5-0.16-3.03-0.09-4.54-0.01
		c-1.32,0.07-1.77-0.39-1.68-1.75c0.3-4.25,0.71-8.48,0.86-12.75c0.92-26.99,2.01-53.97,2.89-80.96c0.52-15.66,0.81-31.33,1.08-47
		c0.04-2.24,0.74-2.88,2.86-2.65c1.57,0.18,3.18,0.13,4.76,0.01c1.52-0.11,2.03,0.36,1.84,1.93c-0.82,6.96-1.18,13.95-1.45,20.95
		c-0.19,5.05-0.4,10.1-0.75,15.14c-0.13,1.82,0.4,2.07,2.01,1.63c7.74-2.1,15.6-3.63,23.6-4.21c11.23-0.81,22.41-0.58,33.19,3.11
		c12.77,4.38,20.53,13.77,24.85,26.17c3.87,11.12,4.25,22.6,2.67,34.21c-1.54,11.27-5.23,21.67-12.06,30.88
		c-6.86,9.24-16.1,14.48-27.3,16.36c-10,1.68-19.86,1.18-29.33-2.82c-9.53-4.03-16.22-10.81-19.69-20.64
		c-0.1-0.27-0.2-0.54-0.32-0.8c-0.06-0.13-0.17-0.23-0.25-0.34C281.25,251.25,281.06,251.25,280.87,251.26z M282.58,204.26
		c-0.38,9.54-0.65,18.06-0.05,26.57c0.22,3.16,0.66,6.32,1.25,9.43c2.11,10.99,7.19,20.11,17.3,25.65
		c7.85,4.3,16.32,5.43,25.17,4.21c10.92-1.51,20.02-6.13,25.93-15.69c10.4-16.84,13.17-35.09,8.7-54.28
		c-2.26-9.71-7.39-17.87-16.14-23.21c-6.96-4.25-14.75-5.73-22.77-5.97c-12.72-0.39-24.92,2.35-36.87,6.49
		c-1.05,0.36-1.35,0.96-1.41,2.07C283.27,188.1,283.25,196.71,282.58,204.26z"/>
	<path class="st0" d="M235.54,205.7c-8.97,8.56-21.09,10.45-32.58,13.79c-7.4,2.15-14.86,4.12-21.92,7.29
		c-4.57,2.05-8.85,4.57-12.4,8.17c-10.5,10.64-6.73,27.91,7.29,33.1c6.9,2.55,14.09,2.89,21.35,2.36
		c7.02-0.52,13.83-2.03,20.42-4.49c1.36-0.51,1.76-0.26,1.42,1.14c-0.17,0.7-0.43,1.42-0.4,2.12c0.15,4.34-2.33,5.48-6.21,6.02
		c-12.53,1.76-25.05,2.52-37.46-0.38c-10.69-2.5-17.82-9.19-20.09-20.05c-2.36-11.28,1.7-20.42,10.86-27.29
		c7.04-5.28,15.26-8.02,23.52-10.65c9.27-2.95,18.89-4.69,28.11-7.81c5.06-1.71,10.06-3.58,13.94-7.54
		c7.63-7.79,7.1-18.39-1.33-24.9c-3.09-2.39-6.64-3.76-10.46-4.41c-16.74-2.87-32.89-0.61-48.57,5.67
		c-0.57,0.23-1.19,0.91-1.79,0.47c-0.73-0.55-0.06-1.33,0.02-2c0.18-1.58,0.44-3.14,0.59-4.72c0.11-1.16,0.65-1.78,1.79-2.09
		c15.35-4.11,30.88-5.98,46.73-3.82c3.79,0.52,7.53,1.3,11.12,2.69c10.15,3.92,15.02,11.45,15.11,22.19
		c0.06,7.51-0.35,15.02-0.82,22.52c-1.23,19.61-2.34,39.22-2.24,58.88c0.01,2.85,0,2.84-2.8,2.81c-1.59-0.02-3.18-0.06-4.77,0.03
		c-1.37,0.08-1.74-0.44-1.63-1.77c0.55-6.47,1.01-12.96,1.53-19.43c0.93-11.45,1.14-22.94,1.65-34.4
		C235.71,214.71,235.54,210.24,235.54,205.7z"/>
	<path class="st0" d="M923.34,268.26c2.97-6.62,5.72-12.71,8.45-18.81c9.44-21.04,18.89-42.09,28.31-63.14
		c2.53-5.66,4.7-11.47,6.65-17.35c0.4-1.2,0.98-1.59,2.17-1.55c2.16,0.06,4.34,0.1,6.5-0.01c1.8-0.09,1.86,0.45,1.17,1.94
		c-9.22,19.8-18.41,39.61-27.55,59.45c-11.13,24.16-22.18,48.35-33.32,72.5c-2.21,4.78-4.76,9.37-8.05,13.55
		c-5.61,7.13-13.21,10.27-21.92,11.13c-5.14,0.51-10.23-0.26-15.26-1.36c-1.18-0.26-1.89-0.74-1.88-2.15
		c0.01-1.65-0.29-3.31-0.43-4.96c-0.05-0.56-0.35-1.24,0.15-1.64c0.57-0.46,1.08,0.18,1.54,0.43c3.35,1.79,6.92,2.8,10.67,3.34
		c8.72,1.25,15.74-1.62,21.09-8.59c4.42-5.77,7.42-12.35,10.6-18.82c2.1-4.27,3.96-8.65,5.97-12.97c0.41-0.89,0.55-1.65,0.18-2.65
		c-9.19-25.33-18.31-50.69-27.5-76.02c-3.81-10.5-7.71-20.96-11.62-31.42c-0.53-1.42-0.16-1.79,1.25-1.75
		c2.38,0.07,4.77,0.04,7.15,0.01c0.98-0.01,1.6,0.22,1.86,1.32c4.33,18.21,11.45,35.5,17.45,53.16
		c4.96,14.6,10.17,29.11,15.28,43.66C922.51,266.29,922.83,267.01,923.34,268.26z"/>
	<path class="st1" d="M510.69,279.22c-22.47-0.68-39.58-10.81-51.23-29.93c-5.74-9.41-8.71-19.83-9.38-30.94
		c-0.6-9.89,0.67-19.32,6.02-27.76c7.83-12.35,18.41-20.24,33.9-19.02c3.87,0.3,7.7,1.08,11.54,1.74c1.4,0.24,1.69,0,1.46-1.49
		c-1.23-7.95,1.17-14.93,6.04-21.15c1.03-1.31,2.38-2.68,4.2-1.31c1.7,1.28,1.65,3.15,0.73,4.88c-0.91,1.71-2.04,3.3-3.08,4.94
		c-2.53,4-4.37,8.27-4.81,13.04c-0.13,1.35,0.17,2.15,1.79,2.55c5.46,1.34,10.89,1.05,16.32,0.13c8.92-1.51,17.66-1.72,25.87,2.88
		c6.34,3.55,10.61,8.96,13.75,15.39c4.44,9.07,4.83,18.76,4.12,28.53c-0.99,13.61-6.17,25.7-14.57,36.31
		c-7.52,9.5-17.08,16.17-28.97,19.34C519.9,278.53,515.44,279.46,510.69,279.22z M512.26,177.85c-1.84-0.48-3.44-0.56-4.43-0.04
		c-1.64,0.87-2.59-0.04-3.83-0.51c-2.05-0.78-4.26-0.79-6.4-1c-6.34-0.62-12.73-0.89-18.65,2.05c-13.42,6.66-18.93,18.5-20.21,32.55
		c-0.98,10.74,1.5,21.06,6.24,30.76c3.88,7.94,8.9,15.12,16.16,20.28c12.8,9.09,27.17,10.76,42.15,7.51
		c16.6-3.6,26.65-15.08,33.61-29.64c3.33-6.97,4.97-14.51,5.7-22.27c0.71-7.65,0.24-15.15-2.25-22.39
		c-4.65-13.51-16.11-21.18-30.86-19.75c-7.03,0.68-13.75,2.99-20.58,4.71c-3.48,0.88-7.54,1.24-9.99,0.44
		C503.46,180.6,507.65,179.52,512.26,177.85z"/>
	<path class="st0" d="M609.49,189.5c3.04-6.03,6.8-11.23,11.95-15.44c6.02-4.91,13.14-7.12,20.61-8.35
		c10.54-1.73,21.05-1.35,31.3,1.77c11.78,3.6,18.82,11.52,20.76,23.83c0.9,5.69,0.6,11.39,0.36,17.08
		c-0.9,21.36-2.32,42.69-2.55,64.08c-0.02,1.79-0.59,2.46-2.39,2.29c-1.5-0.14-3.03-0.07-4.55-0.01c-1.25,0.04-1.82-0.28-1.7-1.72
		c1.5-18.28,2.32-36.61,3.29-54.93c0.4-7.63,1.09-15.26,0.36-22.94c-0.99-10.39-6.34-17.36-16.14-20.63
		c-12.44-4.15-25.05-4.39-37.32,0.45c-12.69,5.01-19.69,15.06-22.79,28.04c-2.23,9.32-2.67,18.87-3.11,28.38
		c-0.64,13.85-0.87,27.72-1.21,41.58c-0.04,1.5-0.6,1.85-1.94,1.78c-1.66-0.08-3.33-0.11-4.98,0c-1.6,0.11-1.95-0.55-1.86-2.02
		c0.7-11.39,1.42-22.78,1.97-34.17c0.83-17.02,1.93-34.03,2.22-51.08c0.1-5.99,0.34-11.99,0.4-17.98c0.02-1.54,0.32-2.31,2.03-2.11
		c2.07,0.23,4.81-0.87,6.06,0.39c1.37,1.37,0.3,4.1,0.2,6.23C610.2,179.19,609.82,184.34,609.49,189.5z"/>
	<path class="st0" d="M409.81,373.99c3.82-4.95,6.9-9.8,9.5-14.96c2.5-4.98,4.69-10.07,5.5-15.63c0.22-1.53,0.79-1.72,2.14-1.03
		c4.14,2.1,5.05,4.17,3.06,8.31c-4.86,10.14-11.1,19.39-18.26,28.04c-2.29,2.77-5.42,3.67-8.8,4.04c-1.14,0.12-1.63-0.27-1.4-1.46
		c1.65-8.85-0.77-17.17-3.48-25.42c-2.02-6.14-2.94-11.25-8.98-16.91c-0.41-0.38-0.69-0.65-1.19-0.81
		c-6.52-2.06-12.99-4.26-19.55-6.19c-5.14-1.52-10.52-1.69-15.83-2.23c-7.91-0.8-15.84-0.73-23.78-0.64
		c-7,0.08-13.87,1.14-20.77,2.21c-4.03,0.63-8.09,1.24-12.17,1.65c-6.51,0.66-12.92,2.18-19.39,3.2
		c-14.68,2.31-29.33,5.15-44.31,3.92c-8.65-0.71-17.06-2.61-25.33-5.28c-10.69-3.45-21.16-7.52-31.57-11.71
		c-6.62-2.66-13.29-4.99-20.27-6.32c0.01-0.95,0.69-0.86,1.08-0.76c3.26,0.77,6.61,0.99,9.89,1.66c6.21,1.26,12.32,2.81,18.38,4.63
		c5.53,1.66,11.04,3.38,16.6,4.92c3.7,1.02,7.47,1.8,11.21,2.65c2.88,0.66,5.76,1.41,8.68,1.84c1.76,0.26,3.52,0.6,5.28,0.76
		c4.79,0.46,9.6,0.55,14.43,0.6c5.04,0.05,10.09-0.07,15.06-0.66c4.56-0.53,9.13-1.23,13.63-2.34c2.75-0.68,5.61-0.96,8.42-1.43
		c3.27-0.55,6.5-1.26,9.8-1.77c13.84-2.12,6.36-0.87,9.51-1.47c3.64-0.69,4.33-0.65,10.97-1.56c2.18-0.3,4.4-0.56,6.61-0.82
		c8.24-0.95,16.54-0.69,24.82-0.76c5.18-0.04,10.26,0.65,15.39,1.26c5.03,0.6,10.03,1.47,14.9,2.67c4.89,1.21,4.44,0.8,9.3,2.16
		c2.66,0.74,10.75,2.95,13.25,4.19c4.1,2.03,6.35,5.87,8.56,9.52c3.65,6.04,5.44,12.85,6.89,19.71
		C408.39,365.66,409,369.57,409.81,373.99z"/>
	<path class="st0" d="M47,129.71c3.22,0,6.03,0.04,8.84-0.02c0.99-0.02,1.36,0.52,1.76,1.27c11.5,21.51,24.07,42.41,35.94,63.71
		c1.26,2.25,2.58,4.47,4.02,6.96c2.88-4.35,5.62-8.48,8.37-12.62c12.78-19.24,25.53-38.48,37.45-58.27
		c0.41-0.68,0.83-1.06,1.69-1.05c2.88,0.05,5.77,0.02,8.61,0.02c0.4,0.92-0.32,1.32-0.64,1.81c-17.05,25.58-34.13,51.15-51.22,76.71
		c-0.75,1.12-1.14,2.25-1.19,3.61c-0.77,20.35-2.3,40.67-2.38,61.04c-0.01,1.38-0.39,1.97-1.84,1.91c-2.09-0.09-4.19-0.06-6.28-0.01
		c-1.26,0.03-1.77-0.29-1.67-1.73c1.37-20.02,2.68-40.05,3.98-60.08c0.13-1.92,0.2-3.72-0.86-5.62
		C77.41,181.8,62.5,156.67,47.9,131.36C47.65,130.93,47.43,130.49,47,129.71z"/>
	<path class="st0" d="M755.46,164.82c6.24-0.18,12.55,0.99,18.88,2.1c1.44,0.25,2.11,0.91,2.09,2.44c-0.02,1.8,0.09,3.61,0.31,5.4
		c0.19,1.57-0.08,2.03-1.65,1.23c-5.53-2.81-11.4-4.41-17.58-4.92c-6.43-0.53-12.69,0.15-18.6,2.87
		c-8.83,4.06-11.9,13.36-7.32,21.95c1.89,3.55,4.63,6.43,7.52,9.17c6.72,6.35,13.96,12.1,20.9,18.2c4.4,3.87,8.62,7.89,11.9,12.82
		c9.68,14.54,3.99,31.86-12.42,37.96c-7.14,2.65-14.53,3.06-21.98,2.43c-6.96-0.59-13.9-1.49-20.63-3.63
		c-1.49-0.47-2.17-1.08-2.2-2.64c-0.04-1.8-0.21-3.61-0.5-5.39c-0.31-1.87,0.41-1.77,1.7-1.12c5.97,2.97,12.24,5.03,18.84,6.09
		c7,1.13,13.93,1.26,20.77-0.92c13.8-4.41,17.93-19.3,8.29-30.24c-4.93-5.6-10.9-10.1-16.55-14.92c-5.77-4.91-11.75-9.6-16.83-15.26
		c-3.89-4.33-7.11-9.1-8.45-14.89c-2.33-10.04,3.69-20.21,12.66-24.7C741.11,165.6,748.08,164.7,755.46,164.82z"/>
	<path class="st0" d="M394.66,270.03c0.98-19.48,2.08-38.94,2.9-58.43c1.04-24.75,1.97-49.51,2.4-74.28
		c0.04-2.09,0.19-4.19,0.18-6.28c0-1.05,0.39-1.38,1.4-1.35c2.09,0.05,4.19,0.06,6.28,0c1.17-0.04,1.45,0.39,1.39,1.53
		c-0.47,8.22-0.79,16.45-1.31,24.66c-1.15,17.81-1.7,35.64-2.3,53.47c-0.72,21.15-1.33,42.31-1.94,63.46
		c-0.04,1.51-0.52,2.06-2.03,1.98c-1.73-0.1-3.47-0.11-5.2,0c-1.49,0.09-2.15-0.37-1.95-1.93c0.11-0.92,0.02-1.87,0.02-2.81
		C394.56,270.03,394.61,270.03,394.66,270.03z"/>
	<path class="st0" d="M809.84,129.7c4.67,0,4.55-0.01,4.28,4.68c-0.59,10.3-1.15,20.61-1.53,30.93
		c-0.88,23.44-1.68,46.89-2.46,70.34c-0.41,12.19-0.89,24.39-0.8,36.59c0.01,1.95-0.51,2.76-2.55,2.54
		c-1.57-0.17-3.17-0.06-4.76-0.01c-1.21,0.04-1.62-0.4-1.53-1.67c2.04-31.49,2.76-63.03,3.73-94.55
		c0.48-15.66,1.01-31.31,1.05-46.98c0-1.57,0.51-2.04,1.98-1.88C808.1,129.78,808.98,129.7,809.84,129.7z"/>
	<path class="st0" d="M875.84,274.73c-3.35,0-6.71,0.02-10.06-0.01c-0.73-0.01-1.09-0.66-1.51-1.14
		c-16.98-19.28-34.43-38.15-51.93-56.97c-1.17-1.26-0.68-1.84,0.27-2.76c11.49-11.07,22.99-22.12,34.39-33.27
		c3.87-3.78,7.48-7.82,11.16-11.79c0.9-0.97,1.8-1.46,3.17-1.41c2.93,0.11,5.87,0.03,8.82,0.03c0.08,1.04-0.64,1.29-1.06,1.7
		c-15.54,14.86-31.08,29.73-46.68,44.54c-1.36,1.29-1.4,1.95-0.09,3.36c17.46,18.65,34.7,37.52,52.43,55.91
		C875.18,273.36,875.89,273.63,875.84,274.73z"/>
	<path class="st2" d="M499.5,167.2c-1.52,0.34-2.66-0.33-3.8-0.77c-4.92-1.89-9.34-4.82-14.27-6.7c-4.72-1.81-9.53-2.14-14.46-1.35
		c-5.9,0.94-11.75,2.23-17.72,2.66c-4.5,0.32-8.96-0.15-13.19-1.75c-4.78-1.8-9.41-3.96-13.81-6.56c-0.36-0.21-0.66-0.53-0.98-0.79
		c0.14-0.19,0.23-0.39,0.31-0.39c7.61,0.48,12.9-3.98,17.89-8.73c5.4-5.13,11.08-9.81,18.36-11.77s14.38-1.06,19.86,4.54
		c3.49,3.57,7.02,6.3,12,7.68c6.07,1.68,9.65,7.86,8.91,13.5c-0.3,2.3-1.44,4.27-2.9,5.95c-1.16,1.34-0.66,1.9,0.57,2.52
		C497.32,165.78,498.51,166.12,499.5,167.2z M429.07,153.4c1.14,0.45,1.66,0.67,2.18,0.86c0.34,0.12,0.69,0.21,1.04,0.28
		c9.44,1.85,18.27,0.46,26.49-4.75c4.79-3.04,9.85-5.63,15.34-7.2c2.33-0.67,4.73-1.09,7.31-1.68c-0.46-0.58-0.76-1.05-1.16-1.44
		c-6.77-6.66-16.26-7.74-24.39-2.79c-4.03,2.45-7.41,5.71-11.03,8.68C440.37,149.04,435.14,151.43,429.07,153.4z M458.83,155.28
		c0.07,0.22,0.14,0.45,0.22,0.67c2.1-0.36,4.21-0.66,6.3-1.09c6.64-1.36,12.98-0.91,18.93,2.7c2.4,1.46,4.8,2.88,7.08,4.53
		c1.94,1.4,2.96,1.22,4.2-0.86c1.69-2.84,2.09-5.88,0.49-8.86c-2.45-4.58-6.62-6.38-11.57-6.68c-6.59-0.41-12.35,2.21-18.09,4.98
		C463.7,151.98,461.09,153.35,458.83,155.28z"/>
	<path class="st0" d="M460.51,324.84c-0.15,2.32-1.18,4.12-2.5,5.71c-2.7,3.25-5.96,5.85-9.71,7.79c-2.57,1.33-3.96,0.43-3.72-2.38
		c0.18-2.11,0.5-3.75,3.37-4.29c4.12-0.77,7.67-3.18,11.04-5.69C459.5,325.6,460,325.22,460.51,324.84z"/>
</g>
<g>
	<path class="st0" d="M179.74,467.65c-0.31,1.79-1.03,4.93-2.16,9.42l-5.99,23.26h-4.78l-11.85-39.14h4.71l6.65,22.96
		c1.06,3.69,1.96,7,2.71,9.95h0.12c0.38-1.81,0.8-3.58,1.25-5.29c0.45-1.72,0.85-3.25,1.19-4.59l5.87-23.02h4.71l5.84,23.02
		c1.43,5.54,2.24,8.83,2.43,9.89h0.12c0.67-2.73,1.57-6.04,2.71-9.95l6.65-22.96h4.71l-11.86,39.14h-4.78L182,477.07
		c-1.09-4.33-1.81-7.47-2.15-9.42H179.74z"/>
	<path class="st0" d="M215.62,496.02h19.83v4.3h-24.54v-39.14h23.47v4.3h-18.76v12.64h16.68v4.3h-16.68V496.02z"/>
	<path class="st0" d="M274.87,480.58c0,2.28-0.28,4.43-0.84,6.44c-0.56,2.01-1.4,3.82-2.53,5.43c-1.13,1.61-2.53,3-4.22,4.17
		s-3.66,2.08-5.91,2.72c-1.29,0.37-2.69,0.63-4.19,0.77c-1.5,0.15-3.13,0.22-4.88,0.22h-8.76v-39.14h8.84
		c1.75,0,3.38,0.07,4.88,0.22s2.9,0.41,4.19,0.78c2.25,0.64,4.22,1.54,5.91,2.69c1.69,1.15,3.08,2.51,4.19,4.08
		c1.11,1.57,1.94,3.33,2.49,5.29C274.6,476.2,274.87,478.32,274.87,480.58z M270.19,480.58c0-3.76-0.82-6.82-2.46-9.16
		c-1.64-2.34-3.99-4-7.06-4.97c-1.17-0.37-2.48-0.62-3.92-0.76c-1.44-0.14-3.08-0.2-4.89-0.2h-3.6v30.54h3.6
		c1.82,0,3.45-0.07,4.89-0.21c1.44-0.14,2.75-0.39,3.92-0.76c3.07-0.97,5.42-2.68,7.06-5.12
		C269.37,487.5,270.19,484.38,270.19,480.58z"/>
	<path class="st0" d="M314.58,480.58c0,2.28-0.28,4.43-0.84,6.44c-0.56,2.01-1.4,3.82-2.53,5.43c-1.13,1.61-2.53,3-4.22,4.17
		s-3.66,2.08-5.91,2.72c-1.29,0.37-2.69,0.63-4.19,0.77c-1.5,0.15-3.13,0.22-4.88,0.22h-8.76v-39.14h8.84
		c1.75,0,3.38,0.07,4.88,0.22s2.9,0.41,4.19,0.78c2.25,0.64,4.22,1.54,5.91,2.69c1.69,1.15,3.08,2.51,4.19,4.08
		c1.11,1.57,1.94,3.33,2.49,5.29C314.31,476.2,314.58,478.32,314.58,480.58z M309.9,480.58c0-3.76-0.82-6.82-2.46-9.16
		c-1.64-2.34-3.99-4-7.06-4.97c-1.17-0.37-2.48-0.62-3.92-0.76c-1.44-0.14-3.08-0.2-4.89-0.2h-3.6v30.54h3.6
		c1.82,0,3.45-0.07,4.89-0.21c1.44-0.14,2.75-0.39,3.92-0.76c3.07-0.97,5.42-2.68,7.06-5.12C309.08,487.5,309.9,484.38,309.9,480.58
		z"/>
	<path class="st0" d="M322.97,500.32v-39.14h4.71v39.14H322.97z"/>
	<path class="st0" d="M357.36,483c2.37,3.45,4.71,7,7.02,10.65h0.17c-0.25-3.8-0.38-7.68-0.38-11.64v-20.83h4.74v39.14h-4.71
		l-15.17-21.82c-2.62-3.8-4.96-7.35-7.02-10.65h-0.17c0.25,3.57,0.38,7.73,0.38,12.49v19.98h-4.71v-39.14h4.68L357.36,483z"/>
	<path class="st0" d="M404.01,484.5h-8.82v-4.3h13.53v18.93c-0.4,0.21-1,0.43-1.78,0.66c-0.78,0.22-1.67,0.43-2.67,0.63
		c-1,0.19-2.08,0.35-3.22,0.47c-1.15,0.12-2.28,0.18-3.4,0.18c-3.31,0-6.24-0.46-8.77-1.38c-2.53-0.92-4.66-2.21-6.37-3.89
		c-1.72-1.68-3.02-3.71-3.9-6.11c-0.89-2.4-1.33-5.07-1.33-8.02c0-3.2,0.49-6.1,1.46-8.72c0.97-2.61,2.38-4.85,4.22-6.7
		c1.84-1.85,4.07-3.28,6.68-4.29c2.61-1,5.49-1.51,8.63-1.51c0.85,0,1.7,0.03,2.54,0.1c0.85,0.07,1.66,0.17,2.43,0.29
		c0.77,0.13,1.48,0.28,2.14,0.45c0.65,0.18,1.2,0.36,1.65,0.56v4.21c-1.16-0.39-2.49-0.72-3.99-0.98c-1.5-0.26-3.01-0.39-4.51-0.39
		c-2.2,0-4.29,0.34-6.29,1.01s-3.75,1.69-5.27,3.06c-1.52,1.37-2.74,3.08-3.64,5.13c-0.91,2.06-1.36,4.47-1.36,7.24
		c0,2.71,0.38,5.05,1.13,7.02s1.82,3.6,3.19,4.88s3.05,2.24,5.01,2.85c1.96,0.61,4.14,0.92,6.55,0.92c1.11,0,2.21-0.06,3.29-0.18
		c1.08-0.12,2.04-0.28,2.88-0.5V484.5z"/>
	<path class="st0" d="M474.65,494.24c1.4-4.27,2.9-8.58,4.51-12.93l7.42-20.13h4.71l-14.66,39.14h-4.11l-14.66-39.14h4.71
		l7.42,20.13c1.63,4.35,3.14,8.66,4.54,12.93H474.65z"/>
	<path class="st0" d="M497.54,500.32v-39.14h4.71v39.14H497.54z"/>
	<path class="st0" d="M543.41,480.58c0,2.28-0.28,4.43-0.84,6.44s-1.4,3.82-2.53,5.43c-1.13,1.61-2.53,3-4.22,4.17
		c-1.69,1.17-3.66,2.08-5.91,2.72c-1.29,0.37-2.69,0.63-4.19,0.77c-1.5,0.15-3.13,0.22-4.88,0.22h-8.76v-39.14h8.84
		c1.75,0,3.38,0.07,4.88,0.22s2.9,0.41,4.19,0.78c2.25,0.64,4.22,1.54,5.91,2.69c1.69,1.15,3.08,2.51,4.19,4.08
		c1.11,1.57,1.94,3.33,2.49,5.29C543.13,476.2,543.41,478.32,543.41,480.58z M538.72,480.58c0-3.76-0.82-6.82-2.46-9.16
		c-1.64-2.34-3.99-4-7.06-4.97c-1.17-0.37-2.48-0.62-3.92-0.76c-1.45-0.14-3.08-0.2-4.89-0.2h-3.6v30.54h3.6
		c1.82,0,3.45-0.07,4.89-0.21c1.44-0.14,2.75-0.39,3.92-0.76c3.07-0.97,5.42-2.68,7.06-5.12
		C537.9,487.5,538.72,484.38,538.72,480.58z"/>
	<path class="st0" d="M556.5,496.02h19.83v4.3h-24.54v-39.14h23.47v4.3H556.5v12.64h16.68v4.3H556.5V496.02z"/>
	<path class="st0" d="M618.98,480.78c0,2.96-0.42,5.68-1.26,8.16s-2.04,4.61-3.61,6.41s-3.46,3.19-5.66,4.2s-4.68,1.51-7.41,1.51
		c-2.83,0-5.36-0.5-7.6-1.51s-4.13-2.4-5.68-4.2c-1.55-1.79-2.73-3.93-3.56-6.41s-1.23-5.2-1.23-8.16c0-2.98,0.42-5.72,1.28-8.21
		c0.85-2.49,2.05-4.63,3.61-6.42c1.56-1.79,3.45-3.19,5.66-4.2c2.22-1,4.7-1.51,7.46-1.51c2.81,0,5.33,0.5,7.55,1.51
		c2.23,1,4.11,2.4,5.66,4.2c1.55,1.79,2.73,3.93,3.56,6.42C618.57,475.06,618.98,477.8,618.98,480.78z M614.3,480.78
		c0-2.63-0.34-4.95-1.02-6.96c-0.68-2.01-1.62-3.69-2.82-5.03c-1.2-1.34-2.61-2.36-4.24-3.06c-1.63-0.69-3.38-1.04-5.25-1.04
		s-3.62,0.35-5.25,1.04c-1.63,0.69-3.04,1.71-4.24,3.06c-1.2,1.35-2.14,3.02-2.82,5.03s-1.02,4.33-1.02,6.96s0.35,4.95,1.04,6.95
		s1.64,3.67,2.83,5.02c1.2,1.35,2.61,2.36,4.24,3.04s3.38,1.02,5.27,1.02c1.87,0,3.61-0.34,5.22-1.02c1.61-0.68,3.01-1.7,4.21-3.04
		c1.2-1.35,2.14-3.02,2.82-5.02C613.96,485.73,614.3,483.42,614.3,480.78z"/>
	<path class="st0" d="M652.95,484.5h-8.82v-4.3h13.53v18.93c-0.4,0.21-1,0.43-1.78,0.66c-0.78,0.22-1.67,0.43-2.67,0.63
		c-1,0.19-2.08,0.35-3.22,0.47s-2.28,0.18-3.4,0.18c-3.31,0-6.24-0.46-8.77-1.38c-2.53-0.92-4.66-2.21-6.37-3.89
		c-1.71-1.68-3.02-3.71-3.9-6.11c-0.89-2.4-1.33-5.07-1.33-8.02c0-3.2,0.49-6.1,1.46-8.72s2.38-4.85,4.22-6.7
		c1.84-1.85,4.07-3.28,6.68-4.29c2.61-1,5.49-1.51,8.63-1.51c0.85,0,1.7,0.03,2.54,0.1c0.85,0.07,1.66,0.17,2.43,0.29
		s1.48,0.28,2.14,0.45s1.2,0.36,1.65,0.56v4.21c-1.16-0.39-2.49-0.72-3.99-0.98c-1.5-0.26-3.01-0.39-4.51-0.39
		c-2.2,0-4.29,0.34-6.29,1.01c-2,0.67-3.75,1.69-5.28,3.06s-2.74,3.08-3.64,5.13c-0.91,2.06-1.36,4.47-1.36,7.24
		c0,2.71,0.38,5.05,1.13,7.02c0.75,1.97,1.82,3.6,3.19,4.88c1.38,1.29,3.05,2.24,5.01,2.85c1.96,0.61,4.14,0.92,6.55,0.92
		c1.11,0,2.21-0.06,3.29-0.18c1.08-0.12,2.04-0.28,2.88-0.5V484.5z"/>
	<path class="st0" d="M671.91,484.12v16.21h-4.71v-39.14h10.02c1.69,0,3.13,0.06,4.32,0.19s2.27,0.33,3.25,0.6
		c2.69,0.74,4.75,2,6.18,3.79c1.42,1.78,2.14,4.01,2.14,6.68c0,1.58-0.25,2.99-0.75,4.24s-1.2,2.33-2.11,3.25
		c-0.91,0.92-1.99,1.67-3.25,2.25c-1.26,0.59-2.66,1.01-4.21,1.29v0.12l11.45,16.73h-4.71l-11.91-16.21H671.91z M671.91,465.48
		v14.33h4.65c1.44,0,2.68-0.05,3.7-0.15c1.02-0.1,1.94-0.27,2.75-0.53c1.64-0.51,2.9-1.32,3.79-2.43c0.89-1.11,1.33-2.56,1.33-4.36
		c-0.02-1.68-0.44-3.03-1.27-4.05c-0.83-1.02-1.98-1.76-3.44-2.21c-0.69-0.21-1.52-0.37-2.49-0.47c-0.96-0.1-2.19-0.15-3.67-0.15
		H671.91z"/>
	<path class="st0" d="M698.32,500.32l15.75-39.14h4.08l15.75,39.14h-5.12l-4.62-11.79H708l-4.62,11.79H698.32z M716.07,467.27
		c-1.73,4.87-3.37,9.3-4.94,13.28l-1.45,3.69h12.82l-1.47-3.68c-1.59-4.05-3.2-8.48-4.85-13.28H716.07z"/>
	<path class="st0" d="M744.54,500.32h-4.71v-39.14h10.71c1.6,0,3.07,0.1,4.43,0.29c1.36,0.2,2.6,0.5,3.74,0.91
		c2.31,0.84,4.06,2.09,5.25,3.76c1.19,1.67,1.79,3.72,1.79,6.16c0,1.99-0.39,3.74-1.17,5.25s-1.91,2.77-3.39,3.79
		s-3.29,1.78-5.41,2.3c-2.13,0.52-4.54,0.78-7.23,0.78c-1.29,0-2.63-0.06-4.01-0.18V500.32z M744.54,479.88
		c0.64,0.08,1.3,0.14,1.99,0.18c0.69,0.04,1.35,0.06,1.96,0.06c2.22,0,4.1-0.18,5.67-0.53c1.56-0.35,2.83-0.86,3.82-1.54
		s1.7-1.49,2.14-2.46c0.44-0.97,0.67-2.06,0.67-3.29c0-1.52-0.36-2.77-1.08-3.74c-0.72-0.97-1.75-1.72-3.08-2.22
		c-0.83-0.31-1.78-0.53-2.86-0.66c-1.08-0.13-2.33-0.19-3.76-0.19h-5.46V479.88z"/>
	<path class="st0" d="M778.3,478.12h20.26v-16.94h4.71v39.14h-4.71v-17.9H778.3v17.9h-4.71v-39.14h4.71V478.12z"/>
	<path class="st0" d="M817.81,496.02h19.83v4.3h-24.54v-39.14h23.47v4.3h-18.76v12.64h16.68v4.3h-16.68V496.02z"/>
	<path class="st0" d="M850.44,484.12v16.21h-4.71v-39.14h10.02c1.69,0,3.13,0.06,4.32,0.19s2.27,0.33,3.25,0.6
		c2.69,0.74,4.75,2,6.18,3.79c1.42,1.78,2.14,4.01,2.14,6.68c0,1.58-0.25,2.99-0.75,4.24s-1.2,2.33-2.11,3.25
		c-0.91,0.92-1.99,1.67-3.25,2.25c-1.26,0.59-2.66,1.01-4.21,1.29v0.12l11.45,16.73h-4.71l-11.91-16.21H850.44z M850.44,465.48
		v14.33h4.65c1.44,0,2.68-0.05,3.7-0.15c1.02-0.1,1.94-0.27,2.75-0.53c1.64-0.51,2.9-1.32,3.79-2.43c0.89-1.11,1.33-2.56,1.33-4.36
		c-0.02-1.68-0.44-3.03-1.27-4.05c-0.83-1.02-1.98-1.76-3.44-2.21c-0.69-0.21-1.52-0.37-2.49-0.47c-0.96-0.1-2.19-0.15-3.67-0.15
		H850.44z"/>
</g>
</svg>
